<?xml version="1.0" encoding="UTF-8" standalone="no"?>
<!DOCTYPE svg PUBLIC "-//W3C//DTD SVG 1.1//EN"
 "http://www.w3.org/Graphics/SVG/1.1/DTD/svg11.dtd">
<!-- Generated by graphviz version 2.47.0 (20210316.0004)
 -->
<!-- Title: dependencies Pages: 1 -->
<svg width="1600pt" height="284pt"
 viewBox="0.00 0.00 1600.00 284.00" xmlns="http://www.w3.org/2000/svg" xmlns:xlink="http://www.w3.org/1999/xlink">
<g id="graph0" class="graph" transform="scale(1 1) rotate(0) translate(4 280)">
<title>dependencies</title>
<polygon fill="white" stroke="transparent" points="-4,4 -4,-280 1596,-280 1596,4 -4,4"/>
<text text-anchor="start" x="775.01" y="-42.4" font-family="Times-12" font-weight="bold" font-size="14.00">Legend</text>
<polygon fill="#ffffb3" stroke="transparent" points="562,-10 562,-30 582,-30 582,-10 562,-10"/>
<text text-anchor="start" x="585.63" y="-15.4" font-family="Times-12" font-size="14.00"> &#160;Declarations</text>
<polygon fill="#8dd3c7" stroke="transparent" points="675,-10 675,-30 695,-30 695,-10 675,-10"/>
<text text-anchor="start" x="698.73" y="-15.4" font-family="Times-12" font-size="14.00"> &#160;Module</text>
<polygon fill="#80b1d3" stroke="transparent" points="761,-10 761,-30 781,-30 781,-10 761,-10"/>
<text text-anchor="start" x="784.78" y="-15.4" font-family="Times-12" font-size="14.00"> &#160;Bootstrap</text>
<polygon fill="#fdb462" stroke="transparent" points="858,-10 858,-30 878,-30 878,-10 858,-10"/>
<text text-anchor="start" x="881.67" y="-15.4" font-family="Times-12" font-size="14.00"> &#160;Providers</text>
<polygon fill="#fb8072" stroke="transparent" points="954,-10 954,-30 974,-30 974,-10 954,-10"/>
<text text-anchor="start" x="977.73" y="-15.4" font-family="Times-12" font-size="14.00"> &#160;Exports</text>
<g id="clust1" class="cluster">
<title>cluster_AppModule</title>
<polygon fill="none" stroke="black" stroke-dasharray="1,5" points="8,-70 8,-268 1584,-268 1584,-70 8,-70"/>
</g>
<g id="clust2" class="cluster">
<title>cluster_AppModule_declarations</title>
<polygon fill="none" stroke="black" points="312,-78 312,-130 1576,-130 1576,-78 312,-78"/>
</g>
<g id="clust12" class="cluster">
<title>cluster_AppModule_imports</title>
<polygon fill="none" stroke="black" points="160,-78 160,-130 304,-130 304,-78 160,-78"/>
</g>
<g id="clust14" class="cluster">
<title>cluster_AppModule_bootstrap</title>
<polygon fill="none" stroke="black" points="731,-208 731,-260 855,-260 855,-208 731,-208"/>
</g>
<g id="clust15" class="cluster">
<title>cluster_AppModule_providers</title>
<polygon fill="none" stroke="black" points="16,-78 16,-130 152,-130 152,-78 16,-78"/>
</g>
<!-- AboutComponent -->
<g id="node1" class="node">
<title>AboutComponent</title>
<polygon fill="#ffffb3" stroke="black" points="1568.33,-122 1451.67,-122 1451.67,-86 1568.33,-86 1568.33,-122"/>
<text text-anchor="middle" x="1510" y="-99.8" font-family="Times,serif" font-size="14.00">AboutComponent</text>
</g>
<!-- AppModule -->
<g id="node10" class="node">
<title>AppModule</title>
<polygon fill="#8dd3c7" stroke="black" points="834.66,-187 831.66,-191 810.66,-191 807.66,-187 751.34,-187 751.34,-151 834.66,-151 834.66,-187"/>
<text text-anchor="middle" x="793" y="-164.8" font-family="Times,serif" font-size="14.00">AppModule</text>
</g>
<!-- AboutComponent&#45;&gt;AppModule -->
<g id="edge1" class="edge">
<title>AboutComponent&#45;&gt;AppModule</title>
<path fill="none" stroke="black" d="M1510,-122.25C1510,-145.02 1510,-181 1510,-181 1510,-181 844.91,-181 844.91,-181"/>
<polygon fill="black" stroke="black" points="844.91,-177.5 834.91,-181 844.91,-184.5 844.91,-177.5"/>
</g>
<!-- AppComponent -->
<g id="node2" class="node">
<title>AppComponent</title>
<polygon fill="#ffffb3" stroke="black" points="1433.94,-122 1328.06,-122 1328.06,-86 1433.94,-86 1433.94,-122"/>
<text text-anchor="middle" x="1381" y="-99.8" font-family="Times,serif" font-size="14.00">AppComponent</text>
</g>
<!-- AppComponent&#45;&gt;AppModule -->
<g id="edge2" class="edge">
<title>AppComponent&#45;&gt;AppModule</title>
<path fill="none" stroke="black" d="M1381,-122.28C1381,-143.32 1381,-175 1381,-175 1381,-175 844.82,-175 844.82,-175"/>
<polygon fill="black" stroke="black" points="844.82,-171.5 834.82,-175 844.82,-178.5 844.82,-171.5"/>
</g>
<!-- ForgotpasswordComponent -->
<g id="node3" class="node">
<title>ForgotpasswordComponent</title>
<polygon fill="#ffffb3" stroke="black" points="1310.54,-122 1139.46,-122 1139.46,-86 1310.54,-86 1310.54,-122"/>
<text text-anchor="middle" x="1225" y="-99.8" font-family="Times,serif" font-size="14.00">ForgotpasswordComponent</text>
</g>
<!-- ForgotpasswordComponent&#45;&gt;AppModule -->
<g id="edge3" class="edge">
<title>ForgotpasswordComponent&#45;&gt;AppModule</title>
<path fill="none" stroke="black" d="M1225,-122.11C1225,-141.34 1225,-169 1225,-169 1225,-169 844.81,-169 844.81,-169"/>
<polygon fill="black" stroke="black" points="844.81,-165.5 834.81,-169 844.81,-172.5 844.81,-165.5"/>
</g>
<!-- HomeComponent -->
<g id="node4" class="node">
<title>HomeComponent</title>
<polygon fill="#ffffb3" stroke="black" points="1120.55,-122 1005.45,-122 1005.45,-86 1120.55,-86 1120.55,-122"/>
<text text-anchor="middle" x="1063" y="-99.8" font-family="Times,serif" font-size="14.00">HomeComponent</text>
</g>
<!-- HomeComponent&#45;&gt;AppModule -->
<g id="edge4" class="edge">
<title>HomeComponent&#45;&gt;AppModule</title>
<path fill="none" stroke="black" d="M1063,-122.02C1063,-139.37 1063,-163 1063,-163 1063,-163 844.89,-163 844.89,-163"/>
<polygon fill="black" stroke="black" points="844.89,-159.5 834.89,-163 844.89,-166.5 844.89,-159.5"/>
</g>
<!-- LoginComponent -->
<g id="node5" class="node">
<title>LoginComponent</title>
<polygon fill="#ffffb3" stroke="black" points="987.28,-122 872.72,-122 872.72,-86 987.28,-86 987.28,-122"/>
<text text-anchor="middle" x="930" y="-99.8" font-family="Times,serif" font-size="14.00">LoginComponent</text>
</g>
<!-- LoginComponent&#45;&gt;AppModule -->
<g id="edge5" class="edge">
<title>LoginComponent&#45;&gt;AppModule</title>
<path fill="none" stroke="black" d="M930,-122.24C930,-137.57 930,-157 930,-157 930,-157 844.85,-157 844.85,-157"/>
<polygon fill="black" stroke="black" points="844.85,-153.5 834.85,-157 844.85,-160.5 844.85,-153.5"/>
</g>
<!-- NavbarComponent -->
<g id="node6" class="node">
<title>NavbarComponent</title>
<polygon fill="#ffffb3" stroke="black" points="854.03,-122 731.97,-122 731.97,-86 854.03,-86 854.03,-122"/>
<text text-anchor="middle" x="793" y="-99.8" font-family="Times,serif" font-size="14.00">NavbarComponent</text>
</g>
<!-- NavbarComponent&#45;&gt;AppModule -->
<g id="edge6" class="edge">
<title>NavbarComponent&#45;&gt;AppModule</title>
<path fill="none" stroke="black" d="M793,-122.11C793,-122.11 793,-140.99 793,-140.99"/>
<polygon fill="black" stroke="black" points="789.5,-140.99 793,-150.99 796.5,-140.99 789.5,-140.99"/>
</g>
<!-- ProfileComponent -->
<g id="node7" class="node">
<title>ProfileComponent</title>
<polygon fill="#ffffb3" stroke="black" points="713.93,-122 594.07,-122 594.07,-86 713.93,-86 713.93,-122"/>
<text text-anchor="middle" x="654" y="-99.8" font-family="Times,serif" font-size="14.00">ProfileComponent</text>
</g>
<!-- ProfileComponent&#45;&gt;AppModule -->
<g id="edge7" class="edge">
<title>ProfileComponent&#45;&gt;AppModule</title>
<path fill="none" stroke="black" d="M654,-122.24C654,-137.57 654,-157 654,-157 654,-157 741.3,-157 741.3,-157"/>
<polygon fill="black" stroke="black" points="741.3,-160.5 751.3,-157 741.3,-153.5 741.3,-160.5"/>
</g>
<!-- RegisterComponent -->
<g id="node8" class="node">
<title>RegisterComponent</title>
<polygon fill="#ffffb3" stroke="black" points="575.98,-122 448.02,-122 448.02,-86 575.98,-86 575.98,-122"/>
<text text-anchor="middle" x="512" y="-99.8" font-family="Times,serif" font-size="14.00">RegisterComponent</text>
</g>
<!-- RegisterComponent&#45;&gt;AppModule -->
<g id="edge8" class="edge">
<title>RegisterComponent&#45;&gt;AppModule</title>
<path fill="none" stroke="black" d="M512,-122.02C512,-139.37 512,-163 512,-163 512,-163 741.23,-163 741.23,-163"/>
<polygon fill="black" stroke="black" points="741.23,-166.5 751.23,-163 741.23,-159.5 741.23,-166.5"/>
</g>
<!-- TodoComponent -->
<g id="node9" class="node">
<title>TodoComponent</title>
<polygon fill="#ffffb3" stroke="black" points="430.39,-122 319.61,-122 319.61,-86 430.39,-86 430.39,-122"/>
<text text-anchor="middle" x="375" y="-99.8" font-family="Times,serif" font-size="14.00">TodoComponent</text>
</g>
<!-- TodoComponent&#45;&gt;AppModule -->
<g id="edge9" class="edge">
<title>TodoComponent&#45;&gt;AppModule</title>
<path fill="none" stroke="black" d="M375,-122.11C375,-141.34 375,-169 375,-169 375,-169 741.01,-169 741.01,-169"/>
<polygon fill="black" stroke="black" points="741.01,-172.5 751.01,-169 741.01,-165.5 741.01,-172.5"/>
</g>
<!-- AppComponent  -->
<g id="node12" class="node">
<title>AppComponent </title>
<polygon fill="#80b1d3" stroke="black" points="847.44,-252 738.56,-252 738.56,-216 847.44,-216 847.44,-252"/>
<text text-anchor="middle" x="793" y="-229.8" font-family="Times,serif" font-size="14.00">AppComponent </text>
</g>
<!-- AppModule&#45;&gt;AppComponent  -->
<g id="edge11" class="edge">
<title>AppModule&#45;&gt;AppComponent </title>
<path fill="none" stroke="black" stroke-dasharray="1,5" d="M793,-187.11C793,-187.11 793,-205.99 793,-205.99"/>
<polygon fill="black" stroke="black" points="789.5,-205.99 793,-215.99 796.5,-205.99 789.5,-205.99"/>
</g>
<!-- AppRoutingModule -->
<g id="node11" class="node">
<title>AppRoutingModule</title>
<polygon fill="#8dd3c7" stroke="black" points="296.27,-122 293.27,-126 272.27,-126 269.27,-122 167.73,-122 167.73,-86 296.27,-86 296.27,-122"/>
<text text-anchor="middle" x="232" y="-99.8" font-family="Times,serif" font-size="14.00">AppRoutingModule</text>
</g>
<!-- AppRoutingModule&#45;&gt;AppModule -->
<g id="edge10" class="edge">
<title>AppRoutingModule&#45;&gt;AppModule</title>
<path fill="none" stroke="black" d="M232,-122.28C232,-143.32 232,-175 232,-175 232,-175 741.29,-175 741.29,-175"/>
<polygon fill="black" stroke="black" points="741.29,-178.5 751.29,-175 741.29,-171.5 741.29,-178.5"/>
</g>
<!-- TodoService -->
<g id="node13" class="node">
<title>TodoService</title>
<ellipse fill="#fdb462" stroke="black" cx="84" cy="-104" rx="60.25" ry="18"/>
<text text-anchor="middle" x="84" y="-99.8" font-family="Times,serif" font-size="14.00">TodoService</text>
</g>
<!-- TodoService&#45;&gt;AppModule -->
<g id="edge12" class="edge">
<title>TodoService&#45;&gt;AppModule</title>
<path fill="none" stroke="black" d="M84,-122.25C84,-145.02 84,-181 84,-181 84,-181 741.3,-181 741.3,-181"/>
<polygon fill="black" stroke="black" points="741.3,-184.5 751.3,-181 741.3,-177.5 741.3,-184.5"/>
</g>
</g>
</svg>
